<?xml version="1.0" encoding="UTF-8"?>
<!DOCTYPE svg PUBLIC "-//W3C//DTD SVG 1.1//EN" "http://www.w3.org/Graphics/SVG/1.1/DTD/svg11.dtd">
<svg xmlns="http://www.w3.org/2000/svg" version="1.1" width="5000px" height="894px" style="shape-rendering:geometricPrecision; text-rendering:geometricPrecision; image-rendering:optimizeQuality; fill-rule:evenodd; clip-rule:evenodd" xmlns:xlink="http://www.w3.org/1999/xlink">
<g><path style="opacity:0.989" fill="#00b1ff" d="M 417.5,-0.5 C 436.167,-0.5 454.833,-0.5 473.5,-0.5C 485.714,0.734608 498.048,2.23461 510.5,4C 547.19,133.856 526.69,253.689 449,363.5C 443.325,370.671 437.492,377.671 431.5,384.5C 379.926,307.185 358.426,221.851 367,128.5C 371.534,85.2819 381.201,43.2819 396,2.5C 403.226,1.19304 410.393,0.193041 417.5,-0.5 Z"/></g>
<g><path style="opacity:0.988" fill="#00b1ff" d="M 598.5,26.5 C 640.464,41.4213 679.298,62.088 715,88.5C 756.407,251.089 716.907,390.255 596.5,506C 590.947,511.224 585.114,516.057 579,520.5C 542.823,501.655 510.657,477.488 482.5,448C 587.812,326.352 626.478,185.852 598.5,26.5 Z"/></g>
<g><path style="opacity:0.988" fill="#0082d1" d="M 291.5,70.5 C 292.586,70.62 293.253,71.2867 293.5,72.5C 267.123,234.467 308.623,375.8 418,496.5C 535.76,615.777 678.26,664.444 845.5,642.5C 846.5,642.833 847.5,643.167 848.5,643.5C 846.059,649.55 842.726,655.05 838.5,660C 725.26,734.324 603.927,750.657 474.5,709C 352.605,663.438 269.105,579.605 224,457.5C 185.178,335.839 198.178,220.172 263,110.5C 272.264,96.9615 281.764,83.6282 291.5,70.5 Z"/></g>
<g><path style="opacity:0.989" fill="#0082d1" d="M 478.5,893.5 C 457.167,893.5 435.833,893.5 414.5,893.5C 298.577,883.159 200.41,836.159 120,752.5C 105.478,731.64 89.8113,711.64 73,692.5C 29.9052,627.053 5.4052,555.053 -0.5,476.5C -0.5,456.5 -0.5,436.5 -0.5,416.5C 9.92499,293.484 60.925,190.984 152.5,109C 162.74,100.258 173.406,92.0918 184.5,84.5C 184.833,84.8333 185.167,85.1667 185.5,85.5C 106.872,229.572 100.705,376.905 167,527.5C 226.018,649.857 318.852,735.357 445.5,784C 510.865,807.405 578.198,816.072 647.5,810C 672.36,807.225 697.027,803.558 721.5,799C 667.217,842.134 605.883,870.801 537.5,885C 517.796,888.585 498.129,891.419 478.5,893.5 Z"/></g>
<g><path style="opacity:0.984" fill="#008cd9" d="M 3065.5,168.5 C 3144.01,166.712 3218.34,183.379 3288.5,218.5C 3289.5,248.493 3289.83,278.493 3289.5,308.5C 3286.02,308.816 3282.69,308.316 3279.5,307C 3203.08,246.102 3116.41,223.436 3019.5,239C 2963.61,251.561 2922.11,283.061 2895,333.5C 2876.02,372.586 2867.18,413.92 2868.5,457.5C 2866.77,508.911 2878.94,556.578 2905,600.5C 2939.02,649.442 2985.85,677.276 3045.5,684C 3103.64,689.614 3159.97,681.947 3214.5,661C 3215.5,615.572 3215.83,570.072 3215.5,524.5C 3165.5,524.667 3115.5,524.5 3065.5,524C 3064.51,501.909 3064.17,479.742 3064.5,457.5C 3139.83,457.5 3215.17,457.5 3290.5,457.5C 3290.67,538.167 3290.5,618.834 3290,699.5C 3233.64,726.173 3174.48,743.339 3112.5,751C 3052.75,755.655 2995.08,746.989 2939.5,725C 2874.42,695.585 2830.25,647.085 2807,579.5C 2788.64,519.222 2784.3,457.888 2794,395.5C 2814.05,282.115 2879.55,209.948 2990.5,179C 3015.34,173.284 3040.34,169.784 3065.5,168.5 Z"/></g>
<g><path style="opacity:0.98" fill="#008cd9" d="M 1181.5,178.5 C 1301.5,178.5 1421.5,178.5 1541.5,178.5C 1541.5,201.167 1541.5,223.833 1541.5,246.5C 1446.83,246.5 1352.17,246.5 1257.5,246.5C 1257.5,298.833 1257.5,351.167 1257.5,403.5C 1338.83,403.5 1420.17,403.5 1501.5,403.5C 1501.5,425.833 1501.5,448.167 1501.5,470.5C 1420.17,470.5 1338.83,470.5 1257.5,470.5C 1257.5,560.5 1257.5,650.5 1257.5,740.5C 1232.17,740.5 1206.83,740.5 1181.5,740.5C 1181.5,553.167 1181.5,365.833 1181.5,178.5 Z"/></g>
<g><path style="opacity:0.979" fill="#008dd9" d="M 1630.5,178.5 C 1704.83,178.5 1779.17,178.5 1853.5,178.5C 1853.5,198.167 1853.5,217.833 1853.5,237.5C 1829.17,237.5 1804.83,237.5 1780.5,237.5C 1780.5,385.833 1780.5,534.167 1780.5,682.5C 1804.83,682.5 1829.17,682.5 1853.5,682.5C 1853.5,701.833 1853.5,721.167 1853.5,740.5C 1779.17,740.5 1704.83,740.5 1630.5,740.5C 1630.5,721.167 1630.5,701.833 1630.5,682.5C 1655.17,682.5 1679.83,682.5 1704.5,682.5C 1704.5,534.167 1704.5,385.833 1704.5,237.5C 1679.83,237.5 1655.17,237.5 1630.5,237.5C 1630.5,217.833 1630.5,198.167 1630.5,178.5 Z"/></g>
<g><path style="opacity:0.982" fill="#008cd9" d="M 2008.5,178.5 C 2033.83,178.5 2059.17,178.5 2084.5,178.5C 2084.5,343.5 2084.5,508.5 2084.5,673.5C 2177.83,673.5 2271.17,673.5 2364.5,673.5C 2364.5,695.833 2364.5,718.167 2364.5,740.5C 2245.83,740.5 2127.17,740.5 2008.5,740.5C 2008.5,553.167 2008.5,365.833 2008.5,178.5 Z"/></g>
<g><path style="opacity:0.987" fill="#008cd9" d="M 2443.5,178.5 C 2517.83,178.5 2592.17,178.5 2666.5,178.5C 2666.5,198.167 2666.5,217.833 2666.5,237.5C 2641.83,237.5 2617.17,237.5 2592.5,237.5C 2592.5,385.833 2592.5,534.167 2592.5,682.5C 2617.17,682.5 2641.83,682.5 2666.5,682.5C 2666.5,701.833 2666.5,721.167 2666.5,740.5C 2592.17,740.5 2517.83,740.5 2443.5,740.5C 2443.5,721.167 2443.5,701.833 2443.5,682.5C 2468.17,682.5 2492.83,682.5 2517.5,682.5C 2517.5,534.167 2517.5,385.833 2517.5,237.5C 2492.83,237.5 2468.17,237.5 2443.5,237.5C 2443.5,217.833 2443.5,198.167 2443.5,178.5 Z"/></g>
<g><path style="opacity:0.983" fill="#008dda" d="M 3448.5,178.5 C 3508.83,178.333 3569.17,178.5 3629.5,179C 3656.95,179.457 3683.95,183.124 3710.5,190C 3790.85,217.436 3826.01,273.603 3816,358.5C 3808.45,413.454 3780.61,454.621 3732.5,482C 3723.08,486.712 3713.74,491.378 3704.5,496C 3774.28,577.055 3843.95,658.222 3913.5,739.5C 3880.84,740.667 3848.17,740.833 3815.5,740C 3752.79,666.293 3690.46,592.293 3628.5,518C 3593.83,517.5 3559.17,517.333 3524.5,517.5C 3524.5,591.833 3524.5,666.167 3524.5,740.5C 3499.17,740.5 3473.83,740.5 3448.5,740.5C 3448.5,553.167 3448.5,365.833 3448.5,178.5 Z M 3524.5,244.5 C 3559.5,244.333 3594.5,244.5 3629.5,245C 3650.98,245.629 3671.65,249.962 3691.5,258C 3724.81,275.217 3740.15,302.717 3737.5,340.5C 3739.69,381.047 3724.35,412.88 3691.5,436C 3673.07,445.859 3653.4,451.525 3632.5,453C 3596.52,454.392 3560.52,454.892 3524.5,454.5C 3524.5,384.5 3524.5,314.5 3524.5,244.5 Z"/></g>
<g><path style="opacity:0.984" fill="#00bbff" d="M 4152.5,178.5 C 4186.17,178.167 4219.84,178.5 4253.5,179.5C 4321.49,366.157 4389.49,552.823 4457.5,739.5C 4430.5,740.833 4403.5,740.833 4376.5,739.5C 4358.08,687.99 4339.75,636.49 4321.5,585C 4241.16,584.167 4160.83,584.333 4080.5,585.5C 4062.05,636.736 4043.88,688.07 4026,739.5C 4000.24,740.661 3974.41,740.828 3948.5,740C 4016.8,552.94 4084.8,365.774 4152.5,178.5 Z M 4200.5,247.5 C 4233.52,337.549 4266.19,427.883 4298.5,518.5C 4233.5,519.833 4168.5,519.833 4103.5,518.5C 4136.11,428.272 4168.45,337.939 4200.5,247.5 Z"/></g>
<g><path style="opacity:0.981" fill="#00baff" d="M 4999.5,178.5 C 4999.5,365.833 4999.5,553.167 4999.5,740.5C 4968.16,740.833 4936.83,740.5 4905.5,739.5C 4817.37,573.564 4729.53,407.564 4642,241.5C 4641.5,407.833 4641.33,574.166 4641.5,740.5C 4617.83,740.5 4594.17,740.5 4570.5,740.5C 4570.5,553.167 4570.5,365.833 4570.5,178.5C 4609.74,178.17 4648.91,178.503 4688,179.5C 4767.73,330.627 4847.73,481.627 4928,632.5C 4928.33,481.5 4928.67,330.5 4929,179.5C 4952.43,178.506 4975.93,178.173 4999.5,178.5 Z"/></g>
<g><path style="opacity:0.986" fill="#00b1ff" d="M 810.5,188.5 C 812.017,188.511 813.184,189.177 814,190.5C 888.46,301.494 910.794,422.494 881,553.5C 808.031,574.743 734.865,574.743 661.5,553.5C 762.666,453.421 812.333,331.754 810.5,188.5 Z"/></g>
</svg>
