<svg width="1855" height="673" viewBox="0 0 1855 673" fill="none" xmlns="http://www.w3.org/2000/svg">
<path d="M1854.29 30.7898V34.5939C1583.42 -71.86 1401.9 115.711 1210.9 313.098C1148.18 377.935 1084.57 443.638 1016.45 500.816C1016.23 501.049 1015.98 501.218 1015.76 501.393C992.074 521.217 967.867 540.023 942.946 557.38C931.176 565.594 919.265 573.485 907.174 580.972C898.668 586.284 890.065 591.391 881.363 596.329C874.81 600.042 868.233 603.613 861.583 607.093C855.595 610.228 849.589 613.278 843.508 616.179C839.578 618.123 835.623 619.978 831.663 621.781C830.084 622.534 828.475 623.259 826.867 623.929C826.844 623.929 826.819 623.929 826.794 623.957C826.447 624.133 826.075 624.304 825.703 624.45C822.912 625.726 820.093 626.944 817.273 628.136C815.52 628.917 813.738 629.641 811.961 630.402C811.937 630.402 811.883 630.43 811.86 630.43C809.712 631.326 807.582 632.2 805.434 633.037C805.188 633.128 804.941 633.242 804.69 633.333C801.946 634.46 799.18 635.538 796.409 636.581C796.066 636.728 795.717 636.841 795.371 636.991C795.22 637.047 795.075 637.104 794.926 637.166C790.822 638.703 786.693 640.209 782.541 641.661C782.019 641.865 781.502 642.041 780.957 642.212C777.128 643.577 773.295 644.853 769.41 646.1C768.126 646.536 766.866 646.945 765.581 647.324C762.294 648.395 758.98 649.382 755.663 650.368C753.539 651.009 751.39 651.615 749.237 652.199C745.702 653.214 742.168 654.172 738.609 655.075C736.455 655.651 734.282 656.202 732.103 656.695C728.42 657.624 724.71 658.498 720.978 659.307C713.909 660.906 706.761 662.329 699.566 663.605C692.274 664.909 684.907 666.07 677.489 667.057C666.489 668.508 655.484 669.522 644.532 670.044C641.764 670.191 638.968 670.277 636.174 670.367C635.854 670.367 635.532 670.395 635.213 670.395C634.247 670.423 633.282 670.451 632.321 670.451H631.456C631.157 670.451 630.861 670.451 630.563 670.479H629.327C629.279 670.507 629.23 670.507 629.182 670.507C629.128 670.507 629.081 670.507 629.056 670.479C627.97 670.507 626.854 670.507 625.768 670.507C613.16 670.507 600.575 669.872 588.064 668.624C587.099 668.534 586.138 668.449 585.172 668.329C584.554 668.273 583.959 668.215 583.341 668.131C582.772 668.069 582.23 668.013 581.66 667.927C581.042 667.865 580.4 667.78 579.782 667.723C579.116 667.639 578.444 667.547 577.778 667.463C576.865 667.344 575.949 667.231 575.035 667.111C573.697 666.94 572.364 666.738 571.051 666.533C569.419 666.331 567.815 666.068 566.207 665.808C563.165 665.342 560.122 664.821 557.086 664.272C552.61 663.427 548.134 662.526 543.658 661.54C535.057 659.657 526.476 657.481 517.949 655.009C495.326 648.422 472.901 639.744 450.673 628.979C409.952 609.298 369.925 582.628 330.763 549.048C242.817 473.647 158.905 363.394 81.3491 221.296C50.8128 165.399 23.6916 108.862 0.0057373 54.9378V47.1337C24.3097 102.798 52.2981 161.455 83.9419 219.409C161.329 361.099 244.97 471.04 332.59 546.175C427.284 627.326 526.847 667.838 629.227 666.88C629.251 666.913 629.276 666.913 629.299 666.913H629.372C629.448 666.913 629.496 666.913 629.545 666.88H630.266C630.637 666.88 630.981 666.88 631.352 666.852H631.574C631.574 666.852 631.598 666.852 631.623 666.852C631.675 666.88 631.747 666.88 631.795 666.852H632.142C632.389 666.825 632.635 666.825 632.887 666.825C633.308 666.825 633.752 666.825 634.171 666.797C634.764 666.797 635.359 666.797 635.949 666.77C638.744 666.713 641.54 666.593 644.332 666.452C655.235 665.926 666.163 664.939 677.138 663.459C683.741 662.592 690.294 661.571 696.797 660.444C697.018 660.387 697.241 660.353 697.44 660.324C705.228 658.964 712.94 657.423 720.58 655.711C726.689 654.377 732.768 652.926 738.774 651.328C743.4 650.138 747.973 648.892 752.546 647.524C757.642 646.073 762.712 644.537 767.728 642.882C767.854 642.854 767.95 642.825 768.076 642.798C772.498 641.374 776.873 639.895 781.254 638.326C785.557 636.845 789.83 635.281 794.085 633.683C794.156 633.683 794.234 633.656 794.283 633.599C798.237 632.118 802.168 630.577 806.075 628.984C809.662 627.534 813.222 626.054 816.756 624.511C819.45 623.384 822.12 622.222 824.791 621.003C826.771 620.13 828.721 619.258 830.677 618.362C974.838 552.278 1093.34 429.799 1208.87 310.398C1400.41 112.462 1582.43 -75.6352 1854.29 30.7898Z" fill="url(#paint0_linear_17_575)"/>
<path d="M1854.29 50.9642V54.7933C1595.31 -43.507 1409.04 136.84 1213.11 326.503C1146.25 391.226 1078.48 456.816 1006.32 513.206C982.036 532.183 957.263 550.125 931.873 566.637C919.163 574.879 906.309 582.775 893.276 590.23C884.676 595.194 875.993 599.956 867.22 604.542C860.149 608.228 853.004 611.827 845.809 615.25C841.109 617.513 836.412 619.689 831.665 621.781C830.085 622.534 828.477 623.259 826.868 623.929C826.845 623.929 826.821 623.929 826.796 623.957C826.448 624.133 826.076 624.304 825.704 624.45C820.736 626.655 815.743 628.747 810.702 630.804C810.551 630.861 810.379 630.924 810.228 630.981C809.687 631.213 809.118 631.446 808.572 631.649C806.201 632.607 803.825 633.503 801.454 634.432C798.957 635.419 796.456 636.376 793.959 637.279C793.887 637.335 793.814 637.363 793.713 637.392C793.688 637.392 793.665 637.426 793.642 637.392C790.253 638.673 786.842 639.92 783.429 641.083C781.353 641.836 779.275 642.562 777.199 643.231C775.099 643.957 772.999 644.648 770.868 645.344C767.802 646.331 764.713 647.323 761.62 648.275C760.113 648.711 758.606 649.177 757.096 649.614C752.872 650.889 748.593 652.079 744.315 653.213C743.553 653.445 742.808 653.649 742.04 653.853C736.95 655.213 731.833 656.489 726.664 657.679C725.969 657.855 725.279 658.001 724.588 658.144C717.736 659.742 710.816 661.194 703.843 662.498C703.772 662.498 703.694 662.525 703.621 662.525C694.272 664.299 684.832 665.806 675.285 667.026C674.247 667.202 673.208 667.342 672.17 667.462C665.595 668.273 658.993 668.942 652.441 669.434C647.891 669.781 643.367 670.041 638.841 670.218C638.45 670.245 638.078 670.245 637.706 670.274C636.866 670.336 636.05 670.365 635.21 670.394C634.245 670.421 633.279 670.45 632.318 670.45H631.946C631.675 670.478 631.401 670.478 631.154 670.478C631.106 670.505 631.081 670.505 631.057 670.505C630.685 670.539 630.314 670.539 629.941 670.539H628.83C628.681 670.567 628.531 670.567 628.409 670.567C628.235 670.567 628.086 670.595 627.941 670.567C627.865 670.567 627.792 670.595 627.714 670.567H627.323C627.271 670.567 627.222 670.595 627.174 670.595C627.125 670.595 627.096 670.567 627.048 670.567C626.928 670.567 626.802 670.595 626.677 670.595H626.334C626.31 670.622 626.282 670.595 626.282 670.595C624.751 670.622 623.22 670.622 621.684 670.622C608.086 670.622 594.537 669.925 581.039 668.503C580.248 668.475 579.455 668.39 578.663 668.241C577.948 668.214 577.259 668.128 576.538 668.01C575.872 667.982 575.206 667.896 574.534 667.805H574.46C573.718 667.721 572.979 667.636 572.235 667.516C571.323 667.432 570.381 667.312 569.467 667.136C568.057 666.996 566.672 666.791 565.262 666.587C565.237 666.614 565.188 666.614 565.165 666.587C563.484 666.354 561.774 666.093 560.095 665.804C557.424 665.395 554.754 664.959 552.083 664.466C547.287 663.626 542.469 662.696 537.668 661.654C529.363 659.879 521.058 657.822 512.775 655.469C512.746 655.441 512.722 655.441 512.674 655.441C489.931 649.087 467.378 640.698 445.03 630.28H445.006C405.544 611.909 366.73 587.295 328.702 556.447C241.437 485.748 158.041 382.429 80.8279 249.305C50.542 197.091 23.5685 144.303 0.0057373 93.9147V86.4576C24.1606 138.468 51.9999 193.232 83.4005 247.36C160.411 380.083 243.536 483.079 330.465 553.521C369.748 585.356 409.877 610.545 450.67 628.98C508.549 655.214 567.762 667.9 627.914 666.942C627.943 666.971 627.967 666.971 627.992 666.971H628.017C628.041 666.971 628.064 666.971 628.089 666.942H628.659C628.808 666.942 628.93 666.942 629.079 666.914H629.673C629.745 666.914 629.823 666.914 629.919 666.881H630.268C630.638 666.881 630.983 666.881 631.354 666.854H631.575C631.575 666.854 631.6 666.854 631.624 666.854C631.676 666.881 631.749 666.881 631.797 666.854H632.144C632.39 666.826 632.636 666.826 632.888 666.826C633.309 666.826 633.754 666.826 634.172 666.798C635.53 666.771 636.891 666.714 638.253 666.651C638.398 666.624 638.549 666.624 638.675 666.624C643.246 666.453 647.82 666.159 652.393 665.813C652.591 665.813 652.788 665.785 652.986 665.785C658.651 665.349 664.31 664.771 669.974 664.073C670.592 664.017 671.235 663.954 671.853 663.869C672.591 663.785 673.311 663.693 674.051 663.58C683.941 662.298 693.733 660.734 703.426 658.902H703.498C710.47 657.599 717.419 656.148 724.291 654.521C730.077 653.218 735.812 651.795 741.526 650.286C746.05 649.067 750.574 647.82 755.046 646.482C760.218 644.975 765.357 643.376 770.475 641.721C774.134 640.531 777.771 639.312 781.379 638.036C785.607 636.585 789.81 635.076 793.987 633.478C794.237 633.393 794.483 633.308 794.705 633.218C796.487 632.548 798.289 631.886 800.07 631.161C802.567 630.203 805.04 629.245 807.488 628.258C813.298 625.933 819.058 623.497 824.794 621.003C826.774 620.13 828.724 619.258 830.68 618.362C896.367 588.845 957.439 548.01 1015.76 501.397C1015.98 501.221 1016.23 501.051 1016.45 500.82C1084.12 446.719 1148.06 384.814 1211.15 323.725C1407.59 133.56 1594.35 -47.2481 1854.29 50.9642Z" fill="url(#paint1_linear_17_575)"/>
<path d="M1854.29 71.2201V75.0215C1606.68 -15.1502 1415.89 157.912 1215.3 339.826C1144.55 404.027 1072.72 469.152 996.798 524.499C996.718 524.557 996.623 524.613 996.526 524.67C970.985 543.336 944.948 560.833 918.346 576.798C905.659 584.428 892.83 591.717 879.85 598.592C870.554 603.558 861.186 608.286 851.717 612.815C844.397 616.324 837.028 619.69 829.586 622.916C825.506 624.714 821.406 626.454 817.273 628.138C815.074 629.067 812.898 629.94 810.7 630.807C810.671 630.835 810.671 630.835 810.647 630.835C809.956 631.13 809.266 631.39 808.571 631.651C806.2 632.609 803.824 633.505 801.452 634.434C798.506 635.568 795.566 636.64 792.601 637.716C789.684 638.787 786.763 639.836 783.822 640.852C781.525 641.633 779.226 642.388 776.904 643.169C776.309 643.403 775.691 643.606 775.097 643.782C774.748 643.924 774.378 644.042 774.034 644.156C772.943 644.508 771.882 644.853 770.794 645.176C767.11 646.366 763.401 647.523 759.694 648.628C759.148 648.804 758.582 648.946 758.013 649.121C757.862 649.179 757.713 649.206 757.568 649.235C753.684 650.424 749.778 651.531 745.848 652.574C744.785 652.863 743.718 653.157 742.656 653.419C741.965 653.623 741.246 653.821 740.532 653.997C736.5 655.039 732.449 656.059 728.368 657.018C726.317 657.511 724.264 658.004 722.211 658.435C717.838 659.427 713.434 660.35 709.034 661.224C700.309 662.964 691.53 664.505 682.654 665.781C677.414 666.565 672.147 667.261 666.853 667.868C658.648 668.826 650.415 669.522 642.23 669.988C642.009 670.015 641.81 670.015 641.612 670.015C638.496 670.219 635.406 670.367 632.316 670.451H631.944C631.673 670.479 631.4 670.479 631.152 670.479C631.104 670.507 631.08 670.507 631.055 670.507C630.683 670.541 630.313 670.541 629.939 670.541C629.422 670.541 628.903 670.568 628.407 670.568C628.234 670.568 628.085 670.596 627.94 670.568C627.863 670.568 627.791 670.596 627.713 670.568C627.568 670.596 627.442 670.625 627.322 670.596H626.53C626.505 670.624 626.453 670.624 626.404 670.624C626.379 670.624 626.356 670.624 626.331 670.596C626.307 670.624 626.279 670.596 626.279 670.596C623.414 670.68 620.548 670.709 617.679 670.709C602.941 670.709 588.28 669.926 573.668 668.391C572.733 668.3 571.815 668.186 570.902 668.095C570.259 668.011 569.612 667.953 568.971 667.863C568.208 667.777 567.439 667.692 566.672 667.572C565.681 667.459 564.668 667.34 563.684 667.199C562.346 667.023 560.989 666.847 559.627 666.643C557.845 666.411 556.092 666.149 554.31 665.86C551.442 665.458 548.597 664.959 545.758 664.466C541.33 663.712 536.932 662.873 532.502 661.943C523.506 660.084 514.505 657.935 505.557 655.441C483.947 649.553 462.484 641.888 441.221 632.456C402.407 615.359 364.157 592.465 326.652 563.879C240.069 497.853 157.197 401.466 80.3314 277.337C50.2699 228.786 23.4701 179.678 0.0057373 132.834V125.783C24.0376 174.106 51.7031 225.011 82.8562 275.307C159.476 399.032 242.077 495.125 328.335 560.862C366.514 589.971 405.453 613.132 445.011 630.285H445.036C469.117 640.761 493.446 649.002 517.948 655.01C553.401 663.688 589.299 667.725 625.496 667.028C625.862 667.028 626.211 667.028 626.582 667.001H627.05C627.175 667.001 627.325 667.001 627.446 666.973H627.841C627.889 667.001 627.943 667.001 627.992 666.973H628.017C628.635 666.973 629.228 666.944 629.871 666.944C630.218 666.944 630.537 666.944 630.884 666.917C631.107 666.917 631.353 666.884 631.575 666.855C631.575 666.855 631.6 666.855 631.624 666.855C631.676 666.882 631.749 666.882 631.797 666.855H632.144C632.39 666.827 632.636 666.827 632.888 666.827C635.728 666.743 638.572 666.595 641.416 666.419C641.639 666.419 641.861 666.419 642.059 666.391C650.22 665.926 658.376 665.233 666.562 664.277C671.555 663.693 676.548 663.057 681.492 662.298C690.397 661.022 699.219 659.516 707.973 657.775C714.279 656.557 720.556 655.19 726.786 653.711C732.745 652.316 738.679 650.836 744.565 649.239C744.588 649.239 744.637 649.239 744.662 649.211C748.965 648.055 753.243 646.83 757.516 645.527C761.77 644.307 766.024 642.976 770.25 641.61C771.288 641.293 772.303 640.97 773.341 640.623C777.175 639.377 780.981 638.067 784.791 636.735C787.017 635.982 789.238 635.193 791.465 634.382C794.333 633.312 797.201 632.263 800.068 631.163C802.566 630.205 805.038 629.247 807.486 628.26C810.6 627.071 813.691 625.824 816.758 624.513C860.42 606.522 902.324 583.621 942.946 557.387C964.408 543.51 985.522 528.738 1006.31 513.213C1078.04 459.809 1146.2 397.961 1213.43 336.985C1414.5 154.63 1605.77 -18.8662 1854.29 71.2201Z" fill="url(#paint2_linear_17_575)"/>
<path d="M1854.29 91.5678V95.3969C1617.56 13.2067 1422.49 178.981 1217.53 353.119C1142.59 416.793 1066.49 481.429 986.607 535.643C960.304 553.55 933.575 570.294 906.333 585.475C892.91 592.963 879.382 600.071 865.712 606.748C856.044 611.504 846.299 616.032 836.487 620.301C829.069 623.577 821.599 626.684 814.085 629.677C814.014 629.705 813.936 629.734 813.864 629.761C811.068 630.861 808.252 631.967 805.432 633.037C805.186 633.128 804.94 633.242 804.688 633.333C801.13 634.665 797.547 636.003 793.958 637.279C793.885 637.335 793.813 637.363 793.712 637.392C793.687 637.392 793.664 637.426 793.641 637.392C790.376 638.582 787.112 639.716 783.822 640.85C781.525 641.632 779.226 642.386 776.904 643.168C775.986 643.464 775.074 643.752 774.156 644.041C772.08 644.738 769.979 645.374 767.879 646.042C765.778 646.711 763.673 647.351 761.573 647.958C761.201 648.077 760.834 648.19 760.462 648.275C759.004 648.711 757.545 649.147 756.058 649.557C755.912 649.614 755.763 649.641 755.637 649.67C754.502 650.022 753.34 650.339 752.18 650.657C751.039 651.009 749.877 651.326 748.717 651.642C747.036 652.108 745.351 652.573 743.647 652.981C741.72 653.531 739.765 654.025 737.814 654.518C735.119 655.214 732.426 655.883 729.702 656.524C729.581 656.552 729.455 656.581 729.335 656.608C725.872 657.448 722.386 658.235 718.9 658.989C717.094 659.393 715.264 659.772 713.434 660.117C705.302 661.834 697.092 663.343 688.834 664.646C679.809 666.097 670.712 667.287 661.542 668.274C652.914 669.176 644.309 669.843 635.702 670.247C635.432 670.274 635.186 670.274 634.911 670.308C633.998 670.366 633.11 670.394 632.192 670.45H631.453C631.352 670.45 631.255 670.45 631.154 670.478H630.02C629.624 670.505 629.227 670.541 628.832 670.541C628.683 670.568 628.532 670.568 628.41 670.568C628.237 670.568 628.087 670.596 627.943 670.568C627.866 670.568 627.794 670.596 627.715 670.568C627.571 670.596 627.445 670.625 627.325 670.596H627.175C626.929 670.624 626.654 670.624 626.407 670.624C626.161 670.624 625.939 670.651 625.692 670.651H625.344C625.146 670.679 624.924 670.679 624.726 670.679H624.575C620.994 670.763 617.382 670.798 613.799 670.798C597.849 670.798 581.977 669.953 566.181 668.212C565.288 668.128 564.423 668.038 563.535 667.923C562.719 667.833 561.926 667.747 561.11 667.634C559.95 667.515 558.812 667.367 557.647 667.226C556.464 667.078 555.277 666.908 554.064 666.733C552.083 666.471 550.084 666.182 548.105 665.888C545.237 665.457 542.345 664.992 539.477 664.527C534.953 663.738 530.427 662.901 525.928 661.971C517.548 660.287 509.166 658.372 500.836 656.167C479.323 650.565 457.989 643.338 436.801 634.456C398.798 618.585 361.369 597.516 324.602 571.276C238.688 509.959 156.337 420.51 79.8377 305.406C49.9731 260.449 23.3195 215.028 0.0057373 171.698V164.963C23.9145 209.66 51.3571 256.703 82.2858 303.229C158.559 417.982 240.644 507.143 326.212 568.238C363.868 595.111 402.261 616.527 441.226 632.461C464.841 642.155 488.674 649.819 512.678 655.447C512.726 655.447 512.751 655.447 512.78 655.474C523.035 657.857 533.321 659.919 543.656 661.54C568.853 665.632 594.219 667.52 619.734 667.174C620.551 667.202 621.337 667.174 622.13 667.111C623.096 667.111 624.086 667.084 625.047 667.055C625.076 667.082 625.101 667.082 625.101 667.055C625.149 667.082 625.221 667.082 625.276 667.055C625.419 667.082 625.57 667.055 625.694 667.055C626.062 667.027 626.41 667.027 626.757 666.998H627.621C627.694 666.998 627.772 666.998 627.844 666.971C627.892 666.998 627.946 666.998 627.995 666.971H628.019C628.195 666.971 628.338 666.971 628.512 666.942H628.662C628.859 666.942 629.082 666.942 629.28 666.914H629.676C629.874 666.914 630.071 666.914 630.271 666.881C630.641 666.881 630.986 666.881 631.356 666.854H631.578C631.578 666.854 631.603 666.854 631.627 666.854C631.679 666.881 631.752 666.881 631.799 666.854C632.79 666.797 633.78 666.77 634.769 666.713C635.016 666.713 635.238 666.686 635.484 666.65C644.064 666.247 652.641 665.579 661.246 664.678C669.826 663.747 678.355 662.647 686.834 661.282C693.04 660.352 699.22 659.281 705.353 658.063C706.912 657.772 708.444 657.485 710.001 657.16C713.712 656.407 717.419 655.624 721.104 654.779C723.006 654.376 724.908 653.939 726.787 653.503C730.718 652.602 734.624 651.644 738.531 650.602C739.743 650.311 740.979 649.995 742.215 649.644C742.24 649.644 742.292 649.644 742.317 649.616C742.66 649.531 743.007 649.44 743.356 649.356C744.959 648.976 746.543 648.545 748.126 648.109C749.015 647.847 749.933 647.589 750.822 647.326C751.068 647.264 751.337 647.179 751.614 647.122C754.405 646.334 757.201 645.553 759.969 644.713C768.303 642.214 776.584 639.572 784.794 636.732C787.02 635.979 789.241 635.191 791.468 634.38C792.307 634.091 793.147 633.802 793.988 633.479C794.239 633.393 794.485 633.308 794.706 633.218C798.512 631.857 802.298 630.434 806.079 628.983C840.62 615.718 874.267 599.466 907.177 580.976C915.457 576.335 923.69 571.544 931.876 566.641C953.732 553.525 975.263 539.445 996.53 524.672C996.626 524.616 996.723 524.559 996.802 524.502C1072.33 472.057 1144.53 410.673 1215.73 350.191C1421.13 175.671 1616.65 9.51818 1854.29 91.5678Z" fill="url(#paint3_linear_17_575)"/>
<path d="M1854.29 112.025V115.829C1627.85 41.5595 1428.8 199.995 1219.78 366.326C1140.84 429.155 1060.66 492.947 977.113 545.829C977.089 545.857 977.089 545.857 977.066 545.857C949.774 563.158 922.081 579.289 893.972 593.801C879.803 601.146 865.539 608.079 851.126 614.554C841.237 618.991 831.3 623.231 821.285 627.205C821.26 627.205 821.235 627.233 821.183 627.233C813.225 630.43 805.214 633.474 797.179 636.348C797.13 636.376 797.053 636.376 797.005 636.405C796.459 636.61 795.918 636.813 795.372 636.989C795.222 637.046 795.077 637.102 794.928 637.164C791.123 638.497 787.29 639.834 783.43 641.081C780.76 642.01 778.065 642.878 775.371 643.722L774.037 644.154C772.946 644.506 771.885 644.85 770.797 645.173C769.832 645.462 768.87 645.78 767.88 646.04C765.78 646.709 763.675 647.349 761.574 647.956C761.202 648.076 760.836 648.189 760.464 648.273C759.006 648.709 757.547 649.145 756.06 649.555C755.914 649.612 755.764 649.64 755.639 649.668C754.504 650.021 753.341 650.337 752.181 650.655C746.889 652.134 741.548 653.529 736.206 654.839C735.492 655.036 734.748 655.212 734.029 655.388C733.067 655.621 732.077 655.854 731.088 656.086C729.282 656.523 727.481 656.952 725.651 657.332C723.67 657.797 721.696 658.235 719.717 658.635C718.925 658.812 718.158 658.988 717.369 659.157C716.92 659.275 716.5 659.361 716.056 659.451C715.462 659.593 714.868 659.712 714.279 659.826C712.646 660.178 710.991 660.495 709.358 660.813C704.239 661.831 699.096 662.785 693.93 663.658C691.753 664.037 689.58 664.354 687.401 664.701C687.353 664.701 687.329 664.701 687.281 664.734C676.997 666.355 666.633 667.664 656.203 668.68C654.397 668.856 652.614 669.026 650.813 669.173C646.831 669.518 642.851 669.813 638.873 670.04C636.4 670.187 633.928 670.305 631.455 670.449C631.155 670.449 630.86 670.449 630.562 670.476H630.022C629.745 670.504 629.451 670.504 629.181 670.504C629.055 670.538 628.953 670.538 628.832 670.538C628.683 670.566 628.532 670.566 628.41 670.566C628.237 670.566 628.087 670.593 627.943 670.566C627.866 670.566 627.794 670.593 627.715 670.566C627.571 670.593 627.445 670.622 627.325 670.593H627.175C626.929 670.621 626.654 670.621 626.407 670.621C626.161 670.621 625.939 670.648 625.692 670.648H625.344C625.146 670.676 624.924 670.676 624.726 670.676H624.575C623.562 670.704 622.549 670.732 621.563 670.76C617.705 670.851 613.871 670.907 610.042 670.907C592.609 670.907 575.278 669.949 557.997 668.006C556.911 667.892 555.847 667.772 554.757 667.659C554.708 667.659 554.685 667.659 554.637 667.631C553.696 667.512 552.759 667.428 551.817 667.279C550.336 667.103 548.829 666.905 547.341 666.702C545.563 666.468 543.805 666.237 542.054 665.948C539.083 665.539 536.119 665.076 533.178 664.583C528.528 663.829 523.907 662.984 519.28 662.089C519.207 662.089 519.129 662.089 519.081 662.055C510.973 660.462 502.915 658.632 494.856 656.603C494.754 656.575 494.628 656.575 494.507 656.546C473.492 651.262 452.651 644.557 431.955 636.343C394.921 621.748 358.424 602.503 322.552 578.678C237.307 522.061 155.492 439.545 79.3455 333.442C49.6995 292.113 23.2211 250.375 0.0057373 210.532V204.173C23.7668 245.24 51.0618 288.457 81.7168 331.174C157.646 436.966 239.186 519.186 324.086 575.577C361.023 600.098 398.63 619.751 436.803 634.461C459.522 643.196 482.465 650.226 505.561 655.446C516.214 657.913 526.944 659.976 537.673 661.66C544.13 662.674 550.605 663.549 557.085 664.273C577.848 666.648 598.743 667.641 619.734 667.175C620.551 667.203 621.337 667.175 622.13 667.112C623.27 667.112 624.38 667.085 625.496 667.028C625.862 667.028 626.211 667.028 626.582 667.001H627.05C627.175 667.001 627.325 667.001 627.446 666.973C627.62 666.973 627.77 666.973 627.914 666.944C627.943 666.973 627.967 666.973 627.992 666.973H628.017C628.041 666.973 628.064 666.973 628.089 666.944C628.484 666.944 628.856 666.917 629.228 666.882C629.253 666.915 629.278 666.915 629.301 666.915H629.373C629.45 666.915 629.498 666.915 629.547 666.882H629.919C630.117 666.882 630.315 666.855 630.514 666.855C630.837 666.855 631.155 666.827 631.504 666.798H631.775C632.442 666.771 633.112 666.714 633.778 666.685H634.2C635.831 666.595 637.464 666.508 639.097 666.39C640.824 666.275 642.554 666.191 644.287 666.072C646.016 665.959 647.726 665.811 649.453 665.663C649.849 665.635 650.269 665.606 650.666 665.579C652.444 665.432 654.2 665.262 655.953 665.086C666.237 664.099 676.428 662.79 686.563 661.225C686.737 661.198 686.91 661.168 687.084 661.14C689.083 660.818 691.112 660.5 693.115 660.154C699.122 659.162 705.105 658.034 711.064 656.843C712.522 656.554 713.956 656.26 715.39 655.94C719.249 655.131 723.078 654.286 726.912 653.391C729.558 652.779 732.228 652.138 734.874 651.503C737.318 650.891 739.766 650.283 742.214 649.644C742.239 649.644 742.291 649.644 742.315 649.616C742.683 649.559 743.006 649.469 743.355 649.356C745.851 648.686 748.323 648.017 750.821 647.326C751.067 647.264 751.336 647.178 751.612 647.122C754.404 646.333 757.199 645.553 759.967 644.713C763.405 643.726 766.844 642.678 770.252 641.607C771.29 641.29 772.304 640.967 773.342 640.62C776.037 639.804 778.708 638.937 781.379 638.035C785.632 636.641 789.885 635.19 794.088 633.682C794.159 633.682 794.237 633.654 794.286 633.598C823.805 623.178 852.807 610.583 881.364 596.333C885.344 594.327 889.322 592.325 893.277 590.233C901.661 585.914 910.018 581.414 918.348 576.799C941.367 563.999 964.11 550.213 986.609 535.646C1066.1 484.272 1142.64 423.352 1218.08 363.335C1427.51 196.655 1626.98 37.9314 1854.29 112.025Z" fill="url(#paint4_linear_17_575)"/>
<path d="M1854.29 132.601V136.405C1637.52 69.9427 1434.8 220.979 1222.08 379.443C1139.08 441.29 1054.75 504.121 967.619 555.523C938.871 572.499 909.795 588.231 880.348 602.277C865.881 609.186 851.321 615.66 836.685 621.697C826.226 626.016 815.718 630.08 805.138 633.883C797.644 636.639 790.105 639.222 782.54 641.66C781.699 641.949 780.882 642.21 780.067 642.47C777.001 643.462 773.935 644.419 770.868 645.344C767.161 646.478 763.427 647.585 759.695 648.627C759.149 648.803 758.583 648.945 758.014 649.119C757.864 649.177 757.715 649.205 757.57 649.234C757.492 649.266 757.444 649.267 757.395 649.267C757.173 649.324 756.95 649.381 756.729 649.437C754.082 650.226 751.411 650.95 748.717 651.642C747.036 652.107 745.351 652.573 743.647 652.981C741.421 653.558 739.2 654.143 736.975 654.693C736.92 654.693 736.873 654.721 736.824 654.721C735.883 654.954 734.971 655.157 734.029 655.39C733.067 655.622 732.077 655.855 731.088 656.088C729.282 656.524 727.481 656.954 725.651 657.333C723.67 657.799 721.696 658.236 719.717 658.637C718.925 658.813 718.158 658.989 717.369 659.159C716.775 659.277 716.205 659.391 715.611 659.511C710.121 660.672 704.611 661.716 699.073 662.701C698.874 662.758 698.677 662.787 698.479 662.821C696.006 663.252 693.509 663.66 691.036 664.04C689.279 664.357 687.526 664.618 685.768 664.88C684.753 665.056 683.74 665.197 682.754 665.345C681.939 665.465 681.123 665.578 680.306 665.691C678.625 665.924 676.916 666.156 675.212 666.388C674.69 666.45 674.174 666.534 673.652 666.592C672.639 666.739 671.653 666.881 670.638 667.001C670.417 667.028 670.194 667.057 669.943 667.085C667.891 667.345 665.839 667.578 663.791 667.781C661.414 668.072 659.039 668.332 656.643 668.536C656.145 668.592 655.629 668.655 655.136 668.683C655.06 668.683 655.012 668.71 654.939 668.71C654.022 668.794 653.108 668.886 652.192 668.97C651.351 669.027 650.511 669.118 649.694 669.174C648.584 669.258 647.469 669.35 646.359 669.434C646.185 669.434 645.987 669.462 645.813 669.462C645.741 669.489 645.639 669.518 645.567 669.489C645.495 669.517 645.393 669.517 645.321 669.517C643.64 669.664 641.93 669.779 640.251 669.897C638.223 670.039 636.224 670.158 634.195 670.244C632.587 670.333 630.955 670.42 629.322 670.476C629.275 670.504 629.225 670.504 629.178 670.504C629.124 670.504 629.076 670.504 629.052 670.476C628.507 670.539 627.991 670.567 627.468 670.567H627.323C627.271 670.567 627.222 670.595 627.174 670.595C627.125 670.595 627.096 670.567 627.048 670.567C626.953 670.595 626.874 670.595 626.777 670.595H626.531C626.507 670.622 626.454 670.622 626.405 670.622C626.381 670.622 626.357 670.622 626.333 670.595C626.308 670.622 626.281 670.595 626.281 670.595C625.962 670.622 625.663 670.651 625.344 670.651C625.146 670.679 624.924 670.679 624.726 670.679H624.575C624.083 670.706 623.585 670.735 623.094 670.735C622.573 670.735 622.055 670.763 621.563 670.763C620.225 670.826 618.863 670.853 617.531 670.882C613.846 670.966 610.139 670.997 606.455 670.997C587.245 670.997 568.108 669.896 549.072 667.719C547.908 667.601 546.744 667.459 545.586 667.283C544.199 667.136 542.79 666.967 541.409 666.763C539.303 666.529 537.204 666.241 535.126 665.918C532.48 665.543 529.858 665.164 527.241 664.733C522.615 664.007 518.017 663.22 513.421 662.324C504.816 660.725 496.234 658.894 487.659 656.837C467.184 651.9 446.841 645.663 426.637 638.176C390.74 624.854 355.334 607.497 320.499 586.105C235.945 534.16 154.627 458.58 78.8475 361.474C49.4288 323.777 23.098 285.669 0.0057373 249.276V243.239C23.6409 280.707 50.7375 320.121 81.1754 359.125C156.705 455.914 237.728 531.232 321.957 582.917C358.029 605.064 394.747 622.914 431.955 636.348C454.727 644.619 477.693 651.211 500.839 656.172C511.37 658.433 521.926 660.383 532.506 661.948C539.035 662.935 545.54 663.78 552.088 664.471C556.787 664.998 561.485 665.429 566.207 665.809C583.244 667.175 600.323 667.668 617.461 667.316C619.713 667.288 621.933 667.203 624.183 667.112C624.483 667.112 624.777 667.085 625.047 667.056C625.076 667.083 625.101 667.083 625.101 667.056C625.149 667.083 625.221 667.083 625.276 667.056C625.419 667.083 625.57 667.056 625.694 667.056C625.99 667.056 626.285 667.028 626.583 666.999H627.051C627.177 666.999 627.326 666.999 627.448 666.972H627.843C627.891 666.999 627.944 666.999 627.993 666.972H628.018C628.193 666.972 628.337 666.972 628.51 666.943H628.661C628.81 666.943 628.932 666.943 629.081 666.915H629.302C629.403 666.915 629.476 666.915 629.548 666.882H629.92C630.119 666.882 630.317 666.855 630.515 666.855C630.838 666.855 631.157 666.827 631.506 666.798H631.776C632.444 666.771 633.114 666.714 633.78 666.685H634.201C634.399 666.651 634.573 666.651 634.77 666.622C635.684 666.566 636.572 666.537 637.489 666.451C638.181 666.419 638.876 666.39 639.591 666.333C639.765 666.333 639.914 666.306 640.083 666.306C640.257 666.306 640.429 666.277 640.604 666.277C642.163 666.157 643.743 666.044 645.304 665.898H645.424C645.771 665.869 646.095 665.84 646.439 665.813C647.453 665.729 648.49 665.666 649.505 665.58C649.9 665.553 650.273 665.524 650.67 665.496C651.264 665.433 651.857 665.377 652.448 665.32L654.229 665.144C654.45 665.144 654.673 665.144 654.895 665.087H655.021L655.488 665.031C655.637 665.031 655.763 665.031 655.908 665.003C657.589 664.855 659.274 664.68 660.978 664.476C661.548 664.419 662.113 664.362 662.683 664.306C663.031 664.278 663.403 664.216 663.744 664.158C663.769 664.158 663.769 664.158 663.798 664.158C664.981 664.039 666.168 663.875 667.351 663.746C669.269 663.524 671.171 663.303 673.069 663.026C675.686 662.708 678.308 662.362 680.93 661.982C682.905 661.693 684.885 661.404 686.86 661.081C688.096 660.91 689.308 660.706 690.521 660.503C692.399 660.214 694.276 659.89 696.131 659.574C697.469 659.37 698.777 659.138 700.113 658.876C702.76 658.411 705.402 657.918 708.024 657.398C714.33 656.151 720.632 654.812 726.915 653.395C729.561 652.783 732.231 652.142 734.877 651.507C736.084 651.216 737.296 650.923 738.533 650.605C739.744 650.315 740.981 649.998 742.217 649.648C742.242 649.648 742.294 649.648 742.318 649.62C742.686 649.563 743.009 649.473 743.358 649.36C744.96 648.98 746.544 648.549 748.128 648.113C751.266 647.297 754.405 646.429 757.521 645.528C761.846 644.338 766.175 643.062 770.476 641.724C774.088 640.652 777.671 639.518 781.259 638.328C808.354 629.593 835.13 619.061 861.587 607.099C863.466 606.259 865.344 605.416 867.223 604.549C871.447 602.605 875.654 600.628 879.856 598.597C888.707 594.392 897.558 590.01 906.337 585.482C930.118 573.233 953.682 559.94 977.069 545.865C977.093 545.865 977.093 545.865 977.116 545.838C1060.29 495.745 1140.97 435.664 1220.42 376.428C1433.54 217.613 1636.7 66.2871 1854.29 132.601Z" fill="url(#paint5_linear_17_575)"/>
<path d="M1854.29 153.354V157.129C1646.56 98.2105 1440.49 241.873 1224.41 392.531C1137.33 453.218 1048.81 514.947 958.15 564.78C928.362 581.15 898.321 596.239 868.01 609.622C867.987 609.622 867.934 609.622 867.909 609.65C852.703 616.351 837.448 622.621 822.097 628.397C811.32 632.462 800.512 636.264 789.657 639.802C782.935 642.013 776.184 644.128 769.409 646.1C767.333 646.74 765.232 647.352 763.132 647.903C761.128 648.51 759.1 649.064 757.096 649.615C753.341 650.658 749.607 651.644 745.851 652.574C744.788 652.863 743.721 653.158 742.658 653.419C741.597 653.679 740.535 653.939 739.472 654.201C736.208 655.012 732.968 655.766 729.703 656.527C729.583 656.554 729.457 656.583 729.337 656.611C725.107 657.569 720.853 658.499 716.627 659.366C715.835 659.542 715.044 659.688 714.281 659.832C712.648 660.184 710.993 660.5 709.36 660.818C705.922 661.487 702.508 662.127 699.074 662.705C698.876 662.762 698.679 662.791 698.48 662.825C696.008 663.256 693.51 663.665 691.038 664.044C689.28 664.361 687.527 664.623 685.77 664.884C684.755 665.06 683.741 665.201 682.756 665.349C681.94 665.469 681.124 665.582 680.307 665.695C678.627 665.929 676.917 666.16 675.213 666.393C674.692 666.454 674.175 666.538 673.654 666.596C667.993 667.322 662.33 667.962 656.646 668.54C656.148 668.596 655.631 668.659 655.139 668.687C655.062 668.687 655.015 668.714 654.942 668.714C654.643 668.742 654.324 668.771 654.025 668.771C651.281 669.031 648.564 669.264 645.816 669.467C645.744 669.495 645.642 669.524 645.57 669.495C645.498 669.523 645.396 669.523 645.324 669.523C639.983 669.902 634.643 670.249 629.325 670.481C629.278 670.508 629.228 670.508 629.181 670.508C629.127 670.508 629.079 670.508 629.055 670.481C628.51 670.544 627.993 670.571 627.471 670.571H627.326C627.274 670.571 627.225 670.599 627.177 670.599C627.128 670.599 627.099 670.571 627.051 670.571C626.955 670.599 626.877 670.599 626.78 670.599H626.336C626.114 670.626 625.891 670.655 625.693 670.655H625.346C625.147 670.683 624.926 670.683 624.727 670.683H624.577C624.085 670.71 623.587 670.739 623.096 670.739C622.155 670.802 621.241 670.83 620.329 670.859C619.388 670.859 618.446 670.887 617.532 670.887C612.713 671.063 607.889 671.119 603.094 671.119C581.708 671.119 560.421 669.872 539.257 667.344C537.774 667.203 536.316 667.027 534.832 666.795C532.853 666.591 530.874 666.329 528.898 666.04C525.881 665.632 522.838 665.195 519.824 664.737C515.595 664.068 511.37 663.372 507.139 662.588C498.906 661.138 490.698 659.483 482.517 657.594C462.294 653.037 442.167 647.323 422.19 640.414C387.157 628.339 352.544 612.695 318.446 593.512C234.584 546.294 153.786 477.654 78.3553 389.515C49.1334 355.379 22.9735 320.904 0.0057373 287.993V282.302C23.4932 316.169 50.3915 351.786 80.5818 387.043C155.767 474.865 236.265 543.245 319.833 590.293C354.891 610.026 390.518 625.987 426.637 638.18C449.087 645.782 471.734 651.904 494.507 656.552C494.628 656.579 494.754 656.579 494.856 656.608C505.189 658.728 515.546 660.497 525.929 661.976C532.529 662.963 539.131 663.779 545.761 664.47C550.531 664.997 555.301 665.428 560.098 665.808C563.734 666.097 567.394 666.358 571.05 666.533C586.453 667.491 601.93 667.753 617.46 667.316C619.711 667.289 621.932 667.203 624.182 667.113C624.481 667.113 624.775 667.085 625.046 667.056C625.075 667.084 625.099 667.084 625.099 667.056C625.147 667.084 625.22 667.084 625.275 667.056C625.418 667.084 625.568 667.056 625.693 667.056C625.988 667.056 626.284 667.029 626.582 667H627.05C627.175 667 627.325 667 627.446 666.972C627.62 666.972 627.77 666.972 627.914 666.943C627.943 666.972 627.967 666.972 627.992 666.972H628.017C628.041 666.972 628.064 666.972 628.089 666.943C628.484 666.943 628.856 666.916 629.228 666.881H629.547C630.218 666.854 630.86 666.825 631.503 666.797C632.27 666.77 633.034 666.741 633.777 666.684C634.097 666.684 634.42 666.65 634.767 666.621C635.11 666.621 635.459 666.594 635.83 666.536C636.371 666.536 636.916 666.508 637.486 666.452C640.056 666.276 642.628 666.1 645.222 665.897H645.419C645.767 665.868 646.091 665.839 646.434 665.812C649.031 665.608 651.624 665.375 654.223 665.143C654.444 665.143 654.667 665.143 654.889 665.086H655.015C655.038 665.086 655.062 665.086 655.087 665.059C655.164 665.059 655.236 665.059 655.309 665.031C658.129 664.77 660.924 664.475 663.74 664.157C663.765 664.157 663.765 664.157 663.794 664.157C664.976 664.038 666.163 663.874 667.346 663.745C669.264 663.517 671.167 663.274 673.065 663.025C675.682 662.707 678.304 662.361 680.926 661.981C682.9 661.692 684.881 661.403 686.855 661.08C688.092 660.909 689.304 660.705 690.517 660.502C692.394 660.213 694.272 659.889 696.127 659.573C697.464 659.369 698.773 659.136 700.109 658.875C702.755 658.41 705.398 657.917 708.019 657.397C709.034 657.219 710.048 657.022 711.062 656.846C712.52 656.557 713.955 656.263 715.388 655.943C717.29 655.57 719.193 655.19 721.101 654.782C723.003 654.378 724.905 653.942 726.784 653.506C732.719 652.173 738.653 650.75 744.564 649.238C744.587 649.238 744.636 649.238 744.661 649.21C748.122 648.343 751.585 647.44 755.042 646.484C759.272 645.321 763.498 644.132 767.728 642.885C767.854 642.857 767.95 642.828 768.076 642.8C793.418 635.341 818.563 626.403 843.507 616.186C844.274 615.897 845.038 615.574 845.806 615.257C847.786 614.446 849.736 613.63 851.717 612.821C856.387 610.847 861.06 608.84 865.712 606.755C875.152 602.634 884.572 598.308 893.971 593.808C918.671 582.057 943.22 569.229 967.619 555.529C1054.43 506.829 1139.25 447.679 1222.85 389.431C1439.31 238.536 1645.75 94.5837 1854.29 153.354Z" fill="url(#paint6_linear_17_575)"/>
<path d="M1854.29 174.282V178.023C1654.94 126.453 1445.88 262.741 1226.82 405.505C1135.37 465.115 1042.43 525.69 948.062 573.894C947.842 574.007 947.62 574.126 947.398 574.241C916.493 590.033 885.438 604.453 854.214 617.077C853.968 617.167 853.716 617.253 853.47 617.372C838.094 623.607 822.667 629.413 807.191 634.695C795.94 638.527 784.664 642.127 773.387 645.409C767.481 647.148 761.571 648.804 755.66 650.368C752.402 651.24 749.136 652.08 745.872 652.896C744.611 653.214 743.327 653.531 742.039 653.854C737.49 654.954 732.917 655.997 728.368 657.017C725.625 657.623 722.854 658.236 720.111 658.785C717.884 659.251 715.657 659.715 713.432 660.118C706.957 661.427 700.428 662.617 693.929 663.661C691.752 664.04 689.579 664.357 687.4 664.704C687.352 664.704 687.327 664.704 687.28 664.737C684.953 665.084 682.63 665.371 680.307 665.689C678.627 665.923 676.917 666.155 675.213 666.387C674.692 666.449 674.175 666.533 673.654 666.591C672.64 666.738 671.655 666.88 670.64 667C670.418 667.027 670.195 667.056 669.945 667.084C667.892 667.344 665.841 667.576 663.792 667.78C661.415 668.07 659.041 668.331 656.645 668.534C656.147 668.591 655.63 668.654 655.138 668.681C655.061 668.681 655.013 668.709 654.941 668.709C654.641 668.737 654.323 668.766 654.023 668.766C653.405 668.856 652.787 668.913 652.193 668.969C651.352 669.026 650.512 669.116 649.696 669.173C648.585 669.257 647.471 669.349 646.36 669.433C646.187 669.433 645.988 669.461 645.815 669.461C645.742 669.488 645.641 669.517 645.568 669.488C645.496 669.516 645.395 669.516 645.322 669.516C643.642 669.663 641.932 669.777 640.253 669.896C638.224 670.038 636.225 670.157 634.197 670.243C632.985 670.332 631.772 670.419 630.56 670.475H630.02C629.744 670.503 629.45 670.503 629.179 670.503C629.053 670.537 628.952 670.537 628.83 670.537C628.681 670.564 628.531 670.565 628.409 670.565C628.235 670.565 628.086 670.592 627.941 670.565C627.865 670.565 627.792 670.592 627.714 670.565C627.569 670.592 627.443 670.621 627.323 670.592H627.174C626.928 670.62 626.653 670.62 626.405 670.62C626.159 670.62 625.938 670.647 625.69 670.647H625.343C625.144 670.675 624.923 670.675 624.724 670.675C623.267 670.759 621.783 670.822 620.325 670.851C613.55 671.111 606.799 671.224 600.048 671.224C575.966 671.224 552.009 669.773 528.174 666.871C526.146 666.611 524.099 666.378 522.071 666.06C519.4 665.743 516.73 665.364 514.059 664.955C509.265 664.291 504.489 663.538 499.719 662.692C491.982 661.389 484.241 659.91 476.529 658.255C456.823 654.105 437.242 648.936 417.786 642.728C383.539 631.903 349.743 617.941 316.418 600.908C233.222 558.388 152.965 496.686 77.8819 417.572C48.8541 386.979 22.8693 356.098 0 326.615V321.269C23.3644 351.573 50.0658 383.436 80.0057 414.958C154.82 493.814 234.8 555.282 317.702 597.626C352.04 615.187 386.905 629.438 422.184 640.407C443.866 647.141 465.698 652.623 487.655 656.834C498.11 658.891 508.57 660.603 519.077 662.055C519.125 662.089 519.203 662.089 519.275 662.089C526.001 663.013 532.723 663.829 539.475 664.525C544.421 665.047 549.364 665.483 554.31 665.858C557.922 666.147 561.553 666.379 565.166 666.584C565.189 666.612 565.238 666.612 565.263 666.584C568.503 666.788 571.768 666.964 575.032 667.105C592.484 667.83 610.017 667.801 627.618 666.992C627.691 666.992 627.769 666.992 627.841 666.964C627.889 666.992 627.943 666.992 627.992 666.964H628.017C628.192 666.964 628.335 666.964 628.509 666.935H628.659C628.808 666.935 628.93 666.935 629.079 666.908H629.673C629.745 666.908 629.823 666.908 629.919 666.875H630.268C630.339 666.875 630.417 666.875 630.514 666.847C630.837 666.847 631.155 666.82 631.504 666.791H631.775C632.442 666.763 633.112 666.707 633.778 666.678C634.098 666.678 634.421 666.643 634.769 666.615C635.112 666.615 635.461 666.587 635.831 666.529C636.373 666.529 636.917 666.502 637.487 666.445C638.179 666.412 638.874 666.383 639.589 666.327C639.763 666.327 639.912 666.299 640.082 666.299C640.255 666.299 640.428 666.27 640.603 666.27C642.133 666.151 643.694 666.038 645.224 665.892H645.421C645.768 665.863 646.093 665.834 646.436 665.806C647.45 665.722 648.487 665.659 649.502 665.574C650.492 665.517 651.458 665.427 652.444 665.314L654.224 665.138C654.446 665.138 654.669 665.138 654.89 665.081H654.992C655.016 665.081 655.064 665.081 655.089 665.053C655.165 665.053 655.238 665.053 655.31 665.026H655.484C655.633 665.026 655.759 665.026 655.904 664.998C657.584 664.85 659.269 664.675 660.973 664.471C661.544 664.414 662.108 664.357 662.679 664.301C663.049 664.273 663.422 664.211 663.795 664.153C671.381 663.371 678.971 662.357 686.563 661.224C686.737 661.197 686.91 661.167 687.084 661.139C689.083 660.817 691.112 660.499 693.115 660.153C697.195 659.513 701.272 658.787 705.353 658.061C706.912 657.771 708.444 657.483 710.001 657.159C715.613 656.117 721.199 654.954 726.787 653.707C731.707 652.631 736.627 651.502 741.525 650.284C745.208 649.411 748.865 648.481 752.548 647.523C777.397 641.021 802.146 633.101 826.797 623.958C826.822 623.931 826.847 623.931 826.87 623.931C827.782 623.579 828.7 623.261 829.589 622.916C831.887 622.044 834.191 621.17 836.49 620.304C841.382 618.445 846.253 616.529 851.126 614.556C860.891 610.639 870.629 606.518 880.351 602.278C906.408 590.845 932.343 578.248 958.153 564.781C1048.57 517.59 1137.62 459.517 1225.34 402.373C1444.72 259.344 1654.15 122.851 1854.29 174.282Z" fill="url(#paint7_linear_17_575)"/>
<path d="M1854.29 195.437V199.123C1662.61 154.545 1450.95 283.464 1229.35 418.447C1133.35 476.9 1035.74 536.368 937.509 582.862C905.613 597.986 873.622 611.737 841.629 623.64C825.309 629.735 808.991 635.335 792.675 640.386C781.033 643.984 769.409 647.323 757.767 650.339C751.388 652.022 744.985 653.587 738.606 655.073C735.216 655.855 731.831 656.609 728.441 657.362C728.417 657.362 728.417 657.362 728.417 657.362C727.132 657.622 725.872 657.884 724.587 658.145C719.391 659.25 714.224 660.294 709.033 661.224C702.307 662.5 695.584 663.633 688.833 664.647C677.954 666.303 667.074 667.668 656.2 668.683C654.394 668.859 652.612 669.028 650.811 669.175C646.828 669.521 642.848 669.815 638.87 670.043C637.803 670.133 636.764 670.19 635.702 670.246C635.432 670.274 635.186 670.274 634.911 670.308C634.046 670.366 633.182 670.393 632.318 670.45H631.946C631.675 670.477 631.401 670.477 631.154 670.477C631.106 670.505 631.081 670.505 631.057 670.505C630.685 670.539 630.314 670.539 629.941 670.539C619.09 671.088 608.235 671.349 597.428 671.349C570.11 671.349 542.914 669.665 515.892 666.27C512.778 665.892 509.687 665.488 506.569 665.052C502.219 664.438 497.867 663.805 493.515 663.078C485.011 661.74 476.508 660.204 468.024 658.521C448.99 654.717 430.074 650.074 411.261 644.559C378.575 635.013 346.259 622.94 314.394 608.309C231.865 570.498 152.13 515.763 77.4143 445.645C48.6137 418.622 22.752 391.312 0.0057373 365.248V360.226C23.2471 386.959 49.7502 415.051 79.4179 442.883C153.888 512.771 233.347 567.306 315.555 605.008C349.182 620.415 383.274 632.982 417.792 642.737C439.226 648.803 460.807 653.734 482.517 657.595C492.772 659.426 503.087 661.018 513.422 662.329C519.998 663.196 526.576 663.949 533.178 664.592C538.148 665.085 543.139 665.521 548.108 665.895C551.943 666.19 555.795 666.45 559.63 666.648C562.918 666.852 566.182 667.028 569.47 667.141C572.238 667.261 575.009 667.374 577.777 667.464C595.083 667.986 612.462 667.81 629.87 666.943C630.217 666.943 630.536 666.943 630.883 666.915C631.106 666.915 631.352 666.882 631.574 666.853C631.574 666.853 631.598 666.853 631.623 666.853C631.675 666.881 631.747 666.881 631.795 666.853H632.142C632.389 666.826 632.635 666.826 632.887 666.826C633.505 666.769 634.148 666.742 634.764 666.713C635.012 666.713 635.233 666.685 635.479 666.65C638.397 666.479 641.341 666.304 644.283 666.072C646.011 665.959 647.721 665.811 649.448 665.663C649.845 665.635 650.265 665.606 650.661 665.579C652.439 665.432 654.195 665.262 655.948 665.086C666.263 664.128 676.545 662.852 686.829 661.282C693.88 660.267 700.924 659.076 707.972 657.772C713.409 656.787 718.851 655.71 724.289 654.518C729.112 653.532 733.956 652.461 738.774 651.327C762.586 645.783 786.421 638.934 810.227 630.983C810.378 630.926 810.502 630.899 810.648 630.836C810.673 630.836 810.673 630.836 810.702 630.808C811.094 630.695 811.465 630.575 811.86 630.434C811.885 630.434 811.938 630.406 811.961 630.406C812.603 630.204 813.222 629.97 813.864 629.766C813.936 629.738 814.014 629.71 814.085 629.682C816.462 628.894 818.832 628.055 821.179 627.239C821.232 627.239 821.256 627.212 821.28 627.212C826.422 625.415 831.54 623.584 836.684 621.703C847.09 617.87 857.502 613.862 867.906 609.656C867.931 609.628 867.984 609.628 868.008 609.628C894.509 598.888 920.99 587.018 947.395 574.247C947.617 574.132 947.84 574.013 948.06 573.9C1042.23 528.337 1135.81 471.334 1227.91 415.233C1449.84 280.095 1661.84 150.974 1854.29 195.437Z" fill="url(#paint8_linear_17_575)"/>
<path d="M1854.29 216.74V220.459C1669.58 182.525 1455.69 304.096 1231.97 431.276C1131.81 488.221 1029.95 546.091 928.411 590.759C895.106 605.411 861.853 618.648 828.698 629.938C811.518 635.8 794.356 641.112 777.247 645.84C764.885 649.298 752.546 652.432 740.239 655.215C733.807 656.666 727.379 658.033 720.976 659.307C715.264 660.441 709.557 661.513 703.843 662.5C703.772 662.5 703.694 662.528 703.621 662.528C696.625 663.746 689.626 664.822 682.656 665.781C669.13 667.67 655.657 669.057 642.233 669.988C642.011 670.015 641.813 670.015 641.615 670.015C640.674 670.106 639.76 670.162 638.842 670.219C638.452 670.247 638.08 670.247 637.707 670.275C637.186 670.308 636.671 670.337 636.173 670.366C633.974 670.507 631.797 670.626 629.6 670.712C618.2 671.232 606.779 671.495 595.43 671.495C563.487 671.495 531.665 669.437 500.118 665.344C495.322 664.737 490.552 664.068 485.781 663.372C477.867 662.181 469.957 660.843 462.096 659.393C441.501 655.65 421.026 651.009 400.677 645.494C370.911 637.427 341.441 627.502 312.343 615.717C230.507 582.602 151.315 534.8 76.9698 473.71C48.3633 450.168 22.6536 426.456 0.0057373 403.793V399.032C23.098 422.251 49.4288 446.631 78.8229 470.806C152.923 531.726 231.865 579.348 313.405 612.349C345.618 625.381 378.281 636.117 411.263 644.564C432.871 650.135 454.65 654.694 476.534 658.265C486.718 659.921 496.93 661.37 507.139 662.59C513.842 663.4 520.539 664.126 527.242 664.738C532.187 665.198 537.107 665.605 542.052 665.957C546.055 666.247 550.064 666.507 554.067 666.741C557.283 666.915 560.47 667.086 563.687 667.206C566.526 667.346 569.37 667.438 572.238 667.523C574.735 667.608 577.26 667.67 579.781 667.726C596.296 668.073 612.859 667.868 629.474 667.114C631.624 667.03 633.8 666.915 635.95 666.768C636.717 666.741 637.485 666.684 638.253 666.649C638.398 666.621 638.549 666.621 638.675 666.621C639.587 666.565 640.5 666.507 641.416 666.417C641.639 666.417 641.861 666.417 642.059 666.39C655.165 665.494 668.315 664.127 681.492 662.297C688.788 661.311 696.103 660.184 703.424 658.901H703.497C709.185 657.916 714.897 656.872 720.581 655.711C744.513 650.983 768.523 644.917 792.604 637.719C792.947 637.628 793.295 637.515 793.644 637.396C793.668 637.43 793.691 637.396 793.715 637.396C794.603 637.135 795.521 636.845 796.41 636.585C796.608 636.528 796.807 636.472 797.005 636.409C797.053 636.381 797.13 636.381 797.179 636.352C799.825 635.542 802.495 634.725 805.141 633.887C810.776 632.117 816.435 630.288 822.1 628.4C832.535 624.919 843.015 621.234 853.473 617.374C853.719 617.254 853.971 617.17 854.217 617.078C881.929 606.835 909.696 595.345 937.512 582.863C1035.56 538.893 1133.89 482.997 1230.61 428.057C1454.63 300.701 1668.82 178.954 1854.29 216.74Z" fill="url(#paint9_linear_17_575)"/>
<path d="M1854.29 238.33V241.992C1675.84 210.328 1460.15 324.616 1234.72 444.046C1129.59 499.739 1022.61 556.424 917.014 599.29C882.742 613.161 848.65 625.614 814.776 636.09C796.952 641.605 779.178 646.599 761.499 650.918C740.73 656.059 720.063 660.322 699.563 663.604C691.456 664.908 683.343 666.069 675.284 667.027C667.644 667.985 660.03 668.767 652.439 669.436C649.797 669.64 647.174 669.845 644.529 670.043C637.754 670.508 631.003 670.888 624.281 671.119C614.314 671.466 604.426 671.612 594.637 671.612C555.746 671.612 518.288 668.943 482.366 664.152C474.404 663.081 466.542 661.92 458.753 660.644C440.065 657.621 421.841 654.024 404.041 649.93C265.931 618.182 154.703 556.826 76.5239 501.745C48.094 481.719 22.5537 461.516 0.0057373 442.277V437.804C22.9503 457.515 49.0567 478.204 78.2061 498.724C155.395 553.057 264.87 613.596 400.678 645.493C422.437 650.628 444.911 655.009 468.027 658.524C478.462 660.088 489.019 661.483 499.724 662.701C506.374 663.456 513.075 664.125 519.826 664.737C524.893 665.168 529.986 665.577 535.129 665.922C539.186 666.244 543.238 666.504 547.342 666.711C550.756 666.913 554.194 667.084 557.651 667.231C560.645 667.372 563.663 667.491 566.676 667.576C569.275 667.667 571.868 667.753 574.465 667.809H574.539C576.914 667.867 579.286 667.9 581.66 667.929C595.63 668.161 609.822 668.014 624.183 667.52C630.884 667.287 637.583 666.942 644.334 666.449C647.005 666.273 649.697 666.04 652.393 665.809C652.591 665.809 652.788 665.782 652.986 665.782C658.622 665.289 664.287 664.705 669.974 664.069C671.332 663.922 672.693 663.746 674.049 663.577C681.616 662.674 689.208 661.633 696.797 660.441C697.018 660.385 697.241 660.351 697.44 660.322C722.805 656.319 748.394 650.804 774.156 644.041C774.48 643.957 774.774 643.866 775.099 643.781C775.171 643.781 775.272 643.753 775.369 643.724C775.963 643.548 776.581 643.402 777.199 643.231C778.14 642.971 779.101 642.737 780.067 642.472C780.362 642.388 780.661 642.301 780.956 642.212C783.848 641.429 786.741 640.647 789.657 639.802C795.495 638.182 801.329 636.469 807.191 634.694C818.635 631.242 830.108 627.558 841.629 623.64C870.405 613.914 899.359 602.86 928.41 590.759C1029.85 548.647 1132.48 494.259 1233.45 440.765C1459.13 321.193 1675.09 206.785 1854.29 238.33Z" fill="url(#paint10_linear_17_575)"/>
<path d="M1854.29 260.132V263.788C1681.4 237.9 1464.32 344.96 1237.66 456.759C1128.43 510.621 1017.24 565.474 908.584 606.254C872.315 619.894 836.316 631.94 800.76 641.865C738.482 659.278 677.586 670.162 618.944 671.528C610.981 671.698 602.993 671.789 595.132 671.789C545.289 671.789 497.797 668.132 452.797 661.716C452.725 661.716 452.652 661.688 452.574 661.688C433.784 659.018 415.441 655.855 397.564 652.285C262.475 625.352 153.219 574.966 76.1055 529.81C47.845 513.264 22.4306 496.633 0.0057373 480.732V476.492C22.8012 492.715 48.7122 509.727 77.588 526.647C155.593 572.294 266.604 623.379 404.044 649.93C422.905 653.586 442.242 656.755 462.097 659.391C472.431 660.787 482.914 662.004 493.518 663.081C500.318 663.779 507.164 664.413 514.065 664.964C518.986 665.344 523.931 665.723 528.9 666.04C533.053 666.331 537.23 666.562 541.412 666.767C544.869 666.971 548.332 667.14 551.818 667.287C554.909 667.434 558 667.547 561.114 667.639C563.737 667.723 566.359 667.809 568.976 667.867C571.501 667.956 574.022 668.014 576.544 668.014C578.795 668.098 581.069 668.132 583.342 668.132C595.061 668.274 606.902 668.216 618.897 667.928C663.275 666.88 708.989 660.385 755.643 649.67C755.767 649.642 755.918 649.613 756.064 649.557C756.286 649.528 756.513 649.499 756.734 649.437C756.956 649.381 757.179 649.324 757.4 649.267C757.45 649.267 757.496 649.267 757.576 649.234C757.72 649.206 757.869 649.177 758.02 649.119C759.207 648.859 760.415 648.57 761.626 648.274C762.124 648.161 762.641 648.048 763.138 647.901C763.954 647.725 764.769 647.549 765.586 647.323C768.179 646.711 770.802 646.071 773.395 645.407C779.802 643.809 786.23 642.154 792.681 640.386C804.648 637.131 816.637 633.652 828.704 629.938C857.904 620.937 887.375 610.609 917.019 599.29C1022.59 558.919 1130.43 505.748 1236.47 453.45C1463.36 341.537 1680.68 234.357 1854.29 260.132Z" fill="url(#paint11_linear_17_575)"/>
<path d="M1854.29 282.187V285.815C1686.27 265.24 1468.23 365.134 1240.77 469.384C1125.51 522.202 1008.17 576.013 894.763 614.872C796.781 648.452 701.767 670.888 613.626 671.931C608.586 671.993 603.539 672.02 598.546 672.02C524.817 672.02 456.06 665.604 392.942 655.185C259.979 633.243 152.058 593.398 75.6857 557.845C47.6235 544.786 22.3553 531.664 0.0057373 519.126V515.152C22.6536 527.867 48.3401 541.273 76.9452 554.565C153.912 590.379 263.015 630.546 397.563 652.285C417.42 655.503 437.816 658.322 458.754 660.645C467.682 661.632 476.678 662.561 485.781 663.371C492.654 663.977 499.572 664.561 506.57 665.055C511.688 665.428 516.855 665.78 522.075 666.068C526.301 666.358 530.555 666.59 534.832 666.795C538.392 666.998 541.999 667.14 545.587 667.287C548.6 667.434 551.619 667.547 554.636 667.639C554.685 667.667 554.708 667.667 554.756 667.667C557.673 667.751 560.594 667.837 563.535 667.927C565.983 667.985 568.431 668.069 570.903 668.098C573.472 668.16 576.07 668.216 578.663 668.244C580.816 668.302 582.99 668.329 585.168 668.329C594.565 668.449 604.028 668.449 613.599 668.329C653.182 667.864 694.174 663.051 736.203 654.838C736.402 654.804 736.624 654.747 736.821 654.719C736.871 654.719 736.917 654.691 736.972 654.691C737.243 654.633 737.537 654.577 737.812 654.515C738.353 654.431 738.922 654.311 739.468 654.197C739.815 654.14 740.183 654.051 740.53 653.994C741.791 653.733 743.052 653.473 744.31 653.211C744.832 653.127 745.35 653.008 745.871 652.893C746.983 652.661 748.121 652.428 749.232 652.197C752.076 651.585 754.92 650.979 757.765 650.338C764.241 648.943 770.745 647.435 777.246 645.837C789.684 642.85 802.191 639.602 814.776 636.087C845.657 627.5 876.982 617.426 908.581 606.253C1017.29 567.941 1129.44 516.544 1239.66 466.044C1467.32 361.677 1685.55 261.668 1854.29 282.187Z" fill="url(#paint12_linear_17_575)"/>
<path d="M1854.29 304.448V308.047C1690.5 292.226 1471.94 385.127 1244.15 481.952C1023.99 575.549 796.312 672.34 608.31 672.34C375.192 672.34 189.788 625.325 75.289 585.913C47.4005 576.304 22.2569 566.666 0.0057373 557.496V553.402C87.8739 589.567 222.024 633.447 392.942 655.186C412.35 657.651 432.23 659.829 452.573 661.688C452.651 661.688 452.723 661.716 452.796 661.716C462.54 662.588 472.405 663.399 482.368 664.152C488.225 664.561 494.159 664.963 500.118 665.343C505.333 665.688 510.602 665.982 515.894 666.272C519.969 666.504 524.073 666.709 528.177 666.879C531.862 667.055 535.546 667.231 539.255 667.344C542.518 667.491 545.784 667.605 549.072 667.723C552.037 667.837 555.031 667.927 557.997 668.014C560.716 668.098 563.462 668.16 566.181 668.216C568.678 668.274 571.174 668.331 573.67 668.394C576.118 668.45 578.567 668.478 581.039 668.507C583.362 668.563 585.713 668.591 588.062 668.625C594.759 668.71 601.509 668.739 608.309 668.739C642.827 668.739 678.699 665.463 715.611 659.512C715.76 659.512 715.906 659.485 716.056 659.454C716.254 659.427 716.428 659.393 716.626 659.365C717.393 659.251 718.133 659.132 718.9 658.99C719.295 658.934 719.717 658.871 720.112 658.787C720.803 658.667 721.497 658.554 722.213 658.435C723.696 658.209 725.179 657.942 726.666 657.682C727.232 657.596 727.825 657.483 728.419 657.364C728.419 657.364 728.419 657.364 728.442 657.364C729.654 657.16 730.867 656.955 732.102 656.695C734.796 656.23 737.515 655.737 740.239 655.215C747.284 653.883 754.378 652.46 761.5 650.918C774.48 648.192 787.581 645.176 800.759 641.865C831.615 634.172 862.988 625.058 894.763 614.872C1008.27 578.395 1126.72 528.036 1243.09 478.584C1471.07 381.648 1689.83 288.689 1854.29 304.448Z" fill="url(#paint13_linear_17_575)"/>
<defs>
<linearGradient id="paint0_linear_17_575" x1="109.696" y1="335.253" x2="1766.78" y2="335.253" gradientUnits="userSpaceOnUse">
<stop stop-color="#B3E5FC"/>
<stop offset="0.4359" stop-color="#29B6F6"/>
<stop offset="1" stop-color="#B3E5FC"/>
</linearGradient>
<linearGradient id="paint1_linear_17_575" x1="109.446" y1="346.983" x2="1762.86" y2="346.983" gradientUnits="userSpaceOnUse">
<stop stop-color="#B3E5FC"/>
<stop offset="0.4359" stop-color="#29B6F6"/>
<stop offset="1" stop-color="#B3E5FC"/>
</linearGradient>
<linearGradient id="paint2_linear_17_575" x1="109.193" y1="358.69" x2="1758.95" y2="358.69" gradientUnits="userSpaceOnUse">
<stop stop-color="#B3E5FC"/>
<stop offset="0.4359" stop-color="#29B6F6"/>
<stop offset="1" stop-color="#B3E5FC"/>
</linearGradient>
<linearGradient id="paint3_linear_17_575" x1="108.94" y1="370.396" x2="1755.06" y2="370.396" gradientUnits="userSpaceOnUse">
<stop stop-color="#B3E5FC"/>
<stop offset="0.4359" stop-color="#29B6F6"/>
<stop offset="1" stop-color="#B3E5FC"/>
</linearGradient>
<linearGradient id="paint4_linear_17_575" x1="108.686" y1="382.113" x2="1751.19" y2="382.113" gradientUnits="userSpaceOnUse">
<stop stop-color="#B3E5FC"/>
<stop offset="0.4359" stop-color="#29B6F6"/>
<stop offset="1" stop-color="#B3E5FC"/>
</linearGradient>
<linearGradient id="paint5_linear_17_575" x1="108.428" y1="393.804" x2="1747.33" y2="393.804" gradientUnits="userSpaceOnUse">
<stop stop-color="#B3E5FC"/>
<stop offset="0.4359" stop-color="#29B6F6"/>
<stop offset="1" stop-color="#B3E5FC"/>
</linearGradient>
<linearGradient id="paint6_linear_17_575" x1="108.168" y1="405.513" x2="1743.49" y2="405.513" gradientUnits="userSpaceOnUse">
<stop stop-color="#B3E5FC"/>
<stop offset="0.4359" stop-color="#29B6F6"/>
<stop offset="1" stop-color="#B3E5FC"/>
</linearGradient>
<linearGradient id="paint7_linear_17_575" x1="107.903" y1="417.221" x2="1739.66" y2="417.221" gradientUnits="userSpaceOnUse">
<stop stop-color="#B3E5FC"/>
<stop offset="0.4359" stop-color="#29B6F6"/>
<stop offset="1" stop-color="#B3E5FC"/>
</linearGradient>
<linearGradient id="paint8_linear_17_575" x1="107.63" y1="428.929" x2="1735.84" y2="428.929" gradientUnits="userSpaceOnUse">
<stop stop-color="#B3E5FC"/>
<stop offset="0.4359" stop-color="#29B6F6"/>
<stop offset="1" stop-color="#B3E5FC"/>
</linearGradient>
<linearGradient id="paint9_linear_17_575" x1="107.347" y1="440.621" x2="1732.04" y2="440.621" gradientUnits="userSpaceOnUse">
<stop stop-color="#B3E5FC"/>
<stop offset="0.4359" stop-color="#29B6F6"/>
<stop offset="1" stop-color="#B3E5FC"/>
</linearGradient>
<linearGradient id="paint10_linear_17_575" x1="107.048" y1="452.318" x2="1728.26" y2="452.318" gradientUnits="userSpaceOnUse">
<stop stop-color="#B3E5FC"/>
<stop offset="0.4359" stop-color="#29B6F6"/>
<stop offset="1" stop-color="#B3E5FC"/>
</linearGradient>
<linearGradient id="paint11_linear_17_575" x1="106.729" y1="464.023" x2="1724.49" y2="464.023" gradientUnits="userSpaceOnUse">
<stop stop-color="#B3E5FC"/>
<stop offset="0.4359" stop-color="#29B6F6"/>
<stop offset="1" stop-color="#B3E5FC"/>
</linearGradient>
<linearGradient id="paint12_linear_17_575" x1="106.383" y1="475.756" x2="1720.73" y2="475.756" gradientUnits="userSpaceOnUse">
<stop stop-color="#B3E5FC"/>
<stop offset="0.4359" stop-color="#29B6F6"/>
<stop offset="1" stop-color="#B3E5FC"/>
</linearGradient>
<linearGradient id="paint13_linear_17_575" x1="105.999" y1="487.516" x2="1716.97" y2="487.516" gradientUnits="userSpaceOnUse">
<stop stop-color="#B3E5FC"/>
<stop offset="0.4359" stop-color="#29B6F6"/>
<stop offset="1" stop-color="#B3E5FC"/>
</linearGradient>
</defs>
</svg>
