<svg width="867" height="868" viewBox="0 0 867 868" fill="none" xmlns="http://www.w3.org/2000/svg">
    <defs>
        <style>
            .blue-dark {
                fill: #0082D1;
                stroke-width: 2px;
                stroke: #00B1FF;
                animation: dash-circle 4s ease-in-out alternate;
            }

            .blue-light {
                fill: #00B1FF;
            }

            .details {
                fill: #A1A1A1;
            }

            @keyframes dash-circle {
                0% {
                    fill-opacity: 0;
                    stroke-dasharray: 1500;
                    stroke-dashoffset: 1500;
                }

                60% {
                    fill-opacity: 0;
                }

                100% {
                    fill-opacity: 1;
                    stroke-dasharray: 1500;
                    stroke-dashoffset: 0;
                }
            }
        </style>
    </defs>
    <g>

        <!-- COAT -->
        <path class="blue-dark"
            d="M457.242 867.903C457.242 867.799 461.004 863.155 465.542 857.684C470.13 852.162 473.995 847.258 474.099 846.794C474.459 845.606 475.645 845.606 475.903 846.69C476.316 848.858 546.835 762.414 580.445 718.494C590.446 705.437 589.415 705.747 597.972 713.385L603.849 718.65L598.383 712.199C593.848 706.884 592.868 705.439 592.815 704.046C592.815 702.653 594.516 700.123 602.763 689.079C671.685 597.216 726.431 512.062 768.803 430.829L772.771 423.19H770.967C769.06 423.19 768.493 422.365 769.936 421.798C771.02 421.384 772.875 417.257 777.463 405.179C780.968 395.89 786.123 380.046 786.123 378.497C786.123 378.084 786.277 377.775 786.433 377.775C786.793 377.775 799.732 385.724 812.671 393.928C832.879 406.728 852.777 420.403 852.518 421.384C852.414 421.745 817 460.865 773.802 508.293C730.604 555.774 695.499 594.789 695.706 595.046C695.963 595.253 720.243 604.698 749.625 615.999C779.06 627.354 803.134 636.695 803.134 636.849C803.083 637.159 458.631 867.694 457.807 867.952C457.497 868.055 457.24 868.055 457.24 867.901L457.242 867.903Z" />

        <path class="blue-dark"
            d="M236.559 751.627C141.76 688.201 64.0744 636.179 63.973 636.023C63.8191 635.869 63.9731 635.559 64.3335 635.352C64.6939 635.146 88.9738 625.701 118.356 614.4L171.709 593.86L170.729 592.776C168.461 590.298 16.2354 422.829 15.0509 421.487C13.4533 419.835 12.3193 420.919 24.3813 412.507C34.7425 405.229 50.9291 394.649 67.7333 384.276C79.9512 376.69 80.8786 376.277 80.9292 378.6C80.9292 379.993 85.4649 393.773 88.9719 403.269C92.9406 413.849 94.0745 416.429 95.0545 417.151C95.4676 417.461 95.415 417.668 94.9513 417.873C94.2304 418.183 100.364 430.362 112.221 452.089C151.708 524.342 201.968 601.136 263.775 683.605C274.033 697.281 275.786 699.914 275.786 701.41C275.786 702.906 274.909 704.198 270.374 709.564C267.383 713.125 264.961 716.067 264.961 716.17C264.961 716.274 267.693 713.95 271.044 710.958C275.889 706.571 277.384 705.487 278.673 705.487C280.117 705.487 280.891 706.365 288.468 716.17C313.728 749.045 350.173 794.253 382.7 832.96C388.525 839.927 393.318 845.914 393.318 846.275C393.318 846.791 403.679 859.796 408.681 865.628C409.094 866.092 409.351 866.609 409.197 866.763C409.094 866.917 331.408 815.103 236.559 751.624V751.627Z" />

        <path class="blue-light"
            d="M474.254 794.772V736.971L544.516 676.796C583.126 643.664 615.242 616.104 615.86 615.484C616.787 614.606 620.859 599.331 638.179 531.309C649.83 485.635 659.572 447.394 659.831 446.413L660.295 444.607L670.502 442.904C691.534 439.395 721.02 433.202 756.691 424.943C767.002 422.569 775.662 420.607 775.919 420.607C776.486 420.607 769.837 433.664 759.423 452.862C719.884 526.043 667.355 606.552 604.259 690.674L594.311 703.989L598.332 708.736C600.497 711.368 606.632 718.438 611.891 724.477C617.149 730.567 621.891 736.089 622.458 736.813C623.025 737.534 626.273 740.579 629.624 743.573C634.109 747.547 635.553 749.148 634.883 749.249C634.265 749.404 631.688 747.236 627.203 742.799C619.729 735.521 590.964 709.874 590.241 709.874C590.035 709.874 585.396 715.602 580.034 722.62C560.755 747.65 536.733 777.79 514.257 805.09C499.978 822.431 474.718 852.571 474.461 852.571C474.357 852.571 474.254 826.56 474.254 794.77V794.772Z" />

        <path class="blue-light"
            d="M379.558 832.601C346.671 793.379 312.441 751.007 286.924 717.72L278.676 707.037L277.389 708.225C276.668 708.896 269.553 715.192 261.615 722.263C253.676 729.334 244.141 738.055 240.429 741.72C236.718 745.332 233.263 748.327 232.8 748.327C232.283 748.327 231.975 748.12 232.079 747.913C232.182 747.656 234.656 745.332 237.594 742.701C243.987 736.972 255.225 724.432 272.132 704.098L274.4 701.363L262.285 685.261C200.426 602.688 150.322 526.202 110.679 453.642C102.535 438.728 91.0382 416.534 91.2973 416.226C91.4006 416.122 95.7824 417.104 101.041 418.342C133.258 426.031 175.118 434.858 196.15 438.417C202.079 439.399 206.975 440.224 206.975 440.224C207.025 440.224 216.769 478.466 228.677 525.171L250.276 610.067L321.775 671.326L393.274 732.586V790.543C393.325 822.386 393.224 848.447 393.12 848.447C393.017 848.447 386.884 841.325 379.562 832.603L379.558 832.601Z" />

        <!-- HEAD -->
        <path class="blue-dark"
            d="M368.833 677.053C331.151 646.346 299.602 620.748 298.83 620.128C297.49 619.044 296.872 616.773 285.375 567.126C278.726 538.638 273.158 514.536 272.953 513.608L272.592 511.905L274.603 512.73C280.376 515.258 293.882 520.265 303.882 523.62C338.627 535.439 370.741 542.199 406.465 545.348C420.795 546.586 453.838 546.586 468.067 545.348C510.749 541.528 551.318 531.569 592.249 514.847C597.507 512.68 601.836 511.027 601.889 511.08C602.043 511.234 581.681 612.388 581.27 613.368C581.063 613.935 437.964 732.894 437.55 732.791C437.447 732.791 406.568 707.708 368.833 677.053Z" />

        <path class="blue-light"
            d="M471.679 480.94C466.73 480.733 457.812 480.269 451.934 479.959C443.12 479.442 438.583 479.442 427.191 480.009C409.354 480.938 366.259 480.938 354.661 480.06C319.246 477.273 295.533 471.236 280.687 461.223C271.976 455.288 266.048 446.774 264.45 437.947C263.832 434.282 263.729 425.768 264.347 425.768C264.604 425.768 268.368 427.42 272.75 429.433C324.865 453.38 377.704 470.307 414.975 475.004C423.789 476.139 431.882 476.449 435.079 475.882C438.171 475.264 442.296 474.747 453.38 473.508C469.257 471.702 483.485 469.018 503.898 463.96C535.548 456.168 575.604 443.058 600.295 432.478C605.863 430.104 605.964 430.051 606.43 431.136C606.687 431.704 606.894 435.109 606.894 438.671C606.894 445.896 606.12 448.787 602.925 454.051C594.882 467.262 571.789 476.243 537.148 479.701C519.777 481.404 493.537 481.921 471.68 480.94H471.679Z" />

        <!-- HAT -->
        <path class="blue-dark"
            d="M422.96 477.534C384.453 474.335 329.191 457.459 272.437 431.552L265.735 428.507L265.581 429.952C265.427 431.448 263.931 432.119 263.931 430.727C263.931 430.313 258.415 427.528 250.168 423.709C201.661 401.464 131.398 364.256 64.4369 325.24C43.9211 313.319 45.9824 314.661 47.4768 314.247C48.147 314.04 49.6414 313.886 50.7753 313.833C56.4975 313.679 85.5196 309.757 102.583 306.763C130.935 301.859 169.804 292.313 190.732 285.139C193.98 284.004 194.804 283.9 196.402 284.417C197.742 284.831 204.186 290.971 222.64 309.343L247.074 333.651L227.125 312.131C208.877 292.416 205.68 288.494 207.691 288.494C207.948 288.494 259.962 306.505 323.265 328.49C386.567 350.475 438.632 368.486 438.942 368.486C440.128 368.486 663.181 288.958 663.335 288.494C663.748 287.359 664.522 288.08 664.366 289.475C664.263 290.559 659.52 295.978 644.674 312.027L625.136 333.134L649.57 308.826C663.025 295.408 674.52 284.208 675.138 283.9C676.788 283.075 678.179 283.126 677.406 284.054C676.736 284.879 677.457 285.139 688.437 288.699C732.976 302.994 779.164 311.715 817.568 313.057C826.331 313.367 828.289 313.574 827.568 314.296C825.918 315.895 774.937 346.706 751.843 360.074C703.283 388.097 654.519 413.334 616.63 429.952C610.084 432.79 606.783 434.493 606.99 434.907C607.093 435.32 606.783 435.578 606.216 435.578C605.443 435.578 605.186 435.217 605.186 434.288C605.186 433.567 604.979 432.999 604.722 432.999C604.515 432.999 601.835 434.031 598.846 435.27C574.566 445.489 535.75 458.029 505.438 465.513C485.025 470.571 470.797 473.255 454.92 475.061C444.352 476.249 439.764 476.817 436.879 477.384C434.404 477.798 427.291 477.901 422.96 477.538V477.534Z" />

        <path class="blue-dark"
            d="M336.154 293.704C280.997 274.196 235.839 257.991 235.736 257.681C235.633 257.371 236.923 252.055 238.623 245.862C247.334 213.865 264.294 145.639 285.74 56.5096L288.471 45.1553L290.482 45.3094C296.564 45.723 337.908 32.9234 408.735 8.71886C422.757 3.91852 434.562 -0.00210571 435.025 -0.00210571C435.643 -0.00210571 574.776 45.7756 575.136 46.1365C575.549 46.4973 629.985 260.261 629.779 260.726C629.522 261.397 438.48 329.313 437.139 329.21C436.726 329.21 391.26 313.211 336.154 293.704Z" />


        <path class="details"
            d="M251.3 340.823C219.804 309.445 194.44 283.848 194.853 284.002C195.267 284.105 198.514 285.189 202.07 286.428L208.513 288.648L257.227 341.237C307.641 395.632 309.705 397.903 308.982 397.903C308.725 397.852 282.796 372.202 251.3 340.823Z" />

        <path class="details"
            d="M563.945 396.044C564.358 395.527 587.091 370.911 614.463 341.391L664.157 287.718L671.013 285.344C674.775 284.002 677.869 283.124 677.869 283.331C677.869 283.848 564.565 396.561 563.791 396.819C563.431 396.922 563.534 396.612 563.945 396.044Z" />
    </g>
</svg>